name C:\Users\antoi\Documents\MyRepositories\upper-imu-dc\Results\main_tracking\Case_78\FLX01_linearAccelerations_groundFrame.mot
datacolumns 4
datarows 105
range 4.37000000 5.41000000
endheader 
time	radius_imu_x	radius_imu_y	radius_imu_z	
          4.37000000	         -0.36957394	          8.77784699	          0.37734403	
          4.38000000	         -0.38534312	          8.76902828	          0.37201557	
          4.39000000	         -0.39974197	          8.75786692	          0.36990080	
          4.40000000	         -0.41253534	          8.74387114	          0.36982876	
          4.41000000	         -0.42372751	          8.72685218	          0.37047765	
          4.42000000	         -0.43349188	          8.70683342	          0.37066490	
          4.43000000	         -0.44198690	          8.68388117	          0.36942424	
          4.44000000	         -0.44940814	          8.65793073	          0.36621287	
          4.45000000	         -0.45585788	          8.62879135	          0.36085266	
          4.46000000	         -0.46152036	          8.59619720	          0.35352542	
          4.47000000	         -0.46679906	          8.56001940	          0.34464324	
          4.48000000	         -0.47239210	          8.52043947	          0.33478434	
          4.49000000	         -0.47929626	          8.47805889	          0.32465705	
          4.50000000	         -0.48865429	          8.43383563	          0.31502540	
          4.51000000	         -0.50162649	          8.38899201	          0.30670524	
          4.52000000	         -0.51924754	          8.34485775	          0.30045726	
          4.53000000	         -0.54243652	          8.30286754	          0.29697918	
          4.54000000	         -0.57199214	          8.26456289	          0.29678031	
          4.55000000	         -0.60843517	          8.23147361	          0.29982703	
          4.56000000	         -0.65216515	          8.20527855	          0.30574622	
          4.57000000	         -0.70326918	          8.18760895	          0.31361621	
          4.58000000	         -0.76154797	          8.18003460	          0.32214521	
          4.59000000	         -0.82652191	          8.18400377	          0.32982416	
          4.60000000	         -0.89745621	          8.20080017	          0.33512652	
          4.61000000	         -0.97342872	          8.23155370	          0.33679915	
          4.62000000	         -1.05325780	          8.27708906	          0.33388985	
          4.63000000	         -1.13558139	          8.33788320	          0.32589106	
          4.64000000	         -1.21880041	          8.41385711	          0.31258399	
          4.65000000	         -1.30112305	          8.50424714	          0.29394942	
          4.66000000	         -1.38077934	          8.60770582	          0.27032376	
          4.67000000	         -1.45616589	          8.72238631	          0.24248029	
          4.68000000	         -1.52582340	          8.84596618	          0.21134466	
          4.69000000	         -1.58862993	          8.97594700	          0.17816941	
          4.70000000	         -1.64381094	          9.10980512	          0.14438624	
          4.71000000	         -1.69089939	          9.24507243	          0.11143017	
          4.72000000	         -1.72971153	          9.37942185	          0.08066418	
          4.73000000	         -1.76034351	          9.51077545	          0.05341236	
          4.74000000	         -1.78309578	          9.63732504	          0.03084074	
          4.75000000	         -1.79842232	          9.75763097	          0.01383978	
          4.76000000	         -1.80684172	          9.87070873	          0.00279724	
          4.77000000	         -1.80887197	          9.97612261	         -0.00256337	
          4.78000000	         -1.80497763	         10.07401069	         -0.00314843	
          4.79000000	         -1.79552103	         10.16495585	         -0.00038299	
          4.80000000	         -1.78072751	         10.24973784	          0.00395966	
          4.81000000	         -1.76066885	         10.32906440	          0.00790741	
          4.82000000	         -1.73540782	         10.40361134	          0.00976547	
          4.83000000	         -1.70523997	         10.47436283	          0.00882128	
          4.84000000	         -1.67013398	         10.54193130	          0.00377000	
          4.85000000	         -1.62959967	         10.60499958	         -0.00743052	
          4.86000000	         -1.58512552	         10.66063864	         -0.02066235	
          4.87000000	         -1.53661637	         10.70695769	         -0.03816003	
          4.88000000	         -1.48242103	         10.75312074	         -0.06708291	
          4.89000000	         -1.42695911	         10.79476931	         -0.09363382	
          4.90000000	         -1.36773670	         10.82007216	         -0.12779594	
          4.91000000	         -1.30657673	         10.83996658	         -0.16598136	
          4.92000000	         -1.24389435	         10.85620909	         -0.20720874	
          4.93000000	         -1.17983988	         10.86637595	         -0.25168396	
          4.94000000	         -1.11500747	         10.87019041	         -0.29839782	
          4.95000000	         -1.04978109	         10.86893138	         -0.34655280	
          4.96000000	         -0.98440068	         10.86404406	         -0.39553908	
          4.97000000	         -0.91915261	         10.85652860	         -0.44462813	
          4.98000000	         -0.85441296	         10.84687682	         -0.49299088	
          4.99000000	         -0.79068944	         10.83535309	         -0.53961921	
          5.00000000	         -0.72847888	         10.82184497	         -0.58368427	
          5.01000000	         -0.66844869	         10.80609727	         -0.62431574	
          5.02000000	         -0.61135884	         10.78770647	         -0.66080939	
          5.03000000	         -0.55802041	         10.76620429	         -0.69271244	
          5.04000000	         -0.50938458	         10.74124542	         -0.71972642	
          5.05000000	         -0.46625972	         10.71243475	         -0.74208969	
          5.06000000	         -0.42945605	         10.67982387	         -0.75991192	
          5.07000000	         -0.39955762	         10.64353920	         -0.77342328	
          5.08000000	         -0.37715527	         10.60405687	         -0.78232370	
          5.09000000	         -0.36258801	         10.56198717	         -0.78607601	
          5.10000000	         -0.35601995	         10.51806054	         -0.78397549	
          5.11000000	         -0.35744134	         10.47314110	         -0.77532702	
          5.12000000	         -0.36623403	         10.42793647	         -0.76029008	
          5.13000000	         -0.38164241	         10.38378758	         -0.73925782	
          5.14000000	         -0.40206950	         10.34182485	         -0.71364046	
          5.15000000	         -0.42615346	         10.30411884	         -0.68365474	
          5.16000000	         -0.45210829	         10.27122058	         -0.65182338	
          5.17000000	         -0.47846141	         10.24375493	         -0.61768453	
          5.18000000	         -0.50407271	         10.22333289	         -0.58238130	
          5.19000000	         -0.52667463	         10.21118271	         -0.54523854	
          5.20000000	         -0.54542761	         10.20781240	         -0.50631691	
          5.21000000	         -0.56045378	         10.21179271	         -0.46561237	
          5.22000000	         -0.57033569	         10.22203215	         -0.42419760	
          5.23000000	         -0.57511124	         10.24010741	         -0.38196892	
          5.24000000	         -0.57529250	         10.26446538	         -0.33680758	
          5.25000000	         -0.57056668	         10.29470605	         -0.29072068	
          5.26000000	         -0.56383501	         10.32763858	         -0.24151795	
          5.27000000	         -0.55508208	         10.36170327	         -0.19145317	
          5.28000000	         -0.54726859	         10.39673778	         -0.13532847	
          5.29000000	         -0.53934322	         10.43253092	         -0.07589935	
          5.30000000	         -0.53591004	         10.46330905	         -0.01269479	
          5.31000000	         -0.53558406	         10.49077708	          0.05306943	
          5.32000000	         -0.53917457	         10.51500761	          0.12210963	
          5.33000000	         -0.54640889	         10.53519410	          0.19222898	
          5.34000000	         -0.55737050	         10.55141279	          0.26280835	
          5.35000000	         -0.57128913	         10.56393407	          0.33232828	
          5.36000000	         -0.58820106	         10.57303453	          0.40035036	
          5.37000000	         -0.60763838	         10.57836322	          0.46528386	
          5.38000000	         -0.62915452	         10.58135540	          0.52762634	
          5.39000000	         -0.65254989	         10.58170002	          0.58601789	
          5.40000000	         -0.67851369	         10.57897730	          0.63954690	
          5.41000000	         -0.70638493	         10.57315734	          0.68703127	
